<svg width="40" height="40" viewBox="0 0 40 40" fill="none" xmlns="http://www.w3.org/2000/svg">
<path d="M40 20C40 31.0457 31.0457 40 20 40C8.9543 40 0 31.0457 0 20C0 8.9543 8.9543 0 20 0C31.0457 0 40 8.9543 40 20Z" fill="#F68721"/>
<path d="M16.3791 30.25C16.1791 30.2493 15.9814 30.2076 15.7983 30.1273C15.6151 30.047 15.4505 29.9299 15.3145 29.7833L8.22699 22.2437C7.96205 21.9614 7.82013 21.5854 7.83243 21.1984C7.84474 20.8114 8.01027 20.4451 8.29262 20.1802C8.57496 19.9152 8.95099 19.7733 9.33798 19.7856C9.72497 19.7979 10.0912 19.9635 10.3562 20.2458L16.3645 26.6479L28.6291 13.2312C28.7535 13.0762 28.9084 12.9483 29.0841 12.8554C29.2598 12.7624 29.4526 12.7063 29.6508 12.6906C29.8489 12.6749 30.0482 12.6998 30.2364 12.7639C30.4245 12.828 30.5976 12.9299 30.7449 13.0633C30.8923 13.1967 31.0108 13.3588 31.0932 13.5397C31.1757 13.7206 31.2202 13.9164 31.2242 14.1152C31.2282 14.3139 31.1915 14.5114 31.1164 14.6954C31.0413 14.8794 30.9293 15.0462 30.7874 15.1854L17.4582 29.7687C17.3236 29.918 17.1595 30.0378 16.9762 30.1206C16.793 30.2034 16.5947 30.2475 16.3937 30.25H16.3791Z" fill="#FCFCFC"/>
</svg>
