<svg width="26" height="28" viewBox="0 0 26 28" fill="none" xmlns="http://www.w3.org/2000/svg">
<path d="M24.25 5.25H19.25V4C19.25 3.00544 18.8549 2.05161 18.1517 1.34835C17.4484 0.645088 16.4946 0.25 15.5 0.25H10.5C9.50544 0.25 8.55161 0.645088 7.84835 1.34835C7.14509 2.05161 6.75 3.00544 6.75 4V5.25H1.75C1.41848 5.25 1.10054 5.3817 0.866116 5.61612C0.631696 5.85054 0.5 6.16848 0.5 6.5C0.5 6.83152 0.631696 7.14946 0.866116 7.38388C1.10054 7.6183 1.41848 7.75 1.75 7.75H3V24C3 24.9946 3.39509 25.9484 4.09835 26.6517C4.80161 27.3549 5.75544 27.75 6.75 27.75H19.25C20.2446 27.75 21.1984 27.3549 21.9017 26.6517C22.6049 25.9484 23 24.9946 23 24V7.75H24.25C24.5815 7.75 24.8995 7.6183 25.1339 7.38388C25.3683 7.14946 25.5 6.83152 25.5 6.5C25.5 6.16848 25.3683 5.85054 25.1339 5.61612C24.8995 5.3817 24.5815 5.25 24.25 5.25ZM9.25 4C9.25 3.66848 9.3817 3.35054 9.61612 3.11612C9.85054 2.8817 10.1685 2.75 10.5 2.75H15.5C15.8315 2.75 16.1495 2.8817 16.3839 3.11612C16.6183 3.35054 16.75 3.66848 16.75 4V5.25H9.25V4ZM20.5 24C20.5 24.3315 20.3683 24.6495 20.1339 24.8839C19.8995 25.1183 19.5815 25.25 19.25 25.25H6.75C6.41848 25.25 6.10054 25.1183 5.86612 24.8839C5.6317 24.6495 5.5 24.3315 5.5 24V7.75H20.5V24ZM10.5 14V21.5C10.5 21.8315 10.3683 22.1495 10.1339 22.3839C9.89946 22.6183 9.58152 22.75 9.25 22.75C8.91848 22.75 8.60054 22.6183 8.36612 22.3839C8.1317 22.1495 8 21.8315 8 21.5V14C8 13.6685 8.1317 13.3505 8.36612 13.1161C8.60054 12.8817 8.91848 12.75 9.25 12.75C9.58152 12.75 9.89946 12.8817 10.1339 13.1161C10.3683 13.3505 10.5 13.6685 10.5 14ZM18 14V21.5C18 21.8315 17.8683 22.1495 17.6339 22.3839C17.3995 22.6183 17.0815 22.75 16.75 22.75C16.4185 22.75 16.1005 22.6183 15.8661 22.3839C15.6317 22.1495 15.5 21.8315 15.5 21.5V14C15.5 13.6685 15.6317 13.3505 15.8661 13.1161C16.1005 12.8817 16.4185 12.75 16.75 12.75C17.0815 12.75 17.3995 12.8817 17.6339 13.1161C17.8683 13.3505 18 13.6685 18 14Z" fill="#F85B5B"/>
</svg>
