<svg width="27" height="27" viewBox="0 0 28 28" fill="none" xmlns="http://www.w3.org/2000/svg">
<path d="M26.15 5.15909H20.75V3.93182C20.75 2.95534 20.3233 2.01885 19.5638 1.32838C18.8043 0.637905 17.7741 0.25 16.7 0.25H11.3C10.2259 0.25 9.19574 0.637905 8.43622 1.32838C7.6767 2.01885 7.25 2.95534 7.25 3.93182V5.15909H1.85C1.49196 5.15909 1.14858 5.28839 0.895406 5.51855C0.642232 5.74871 0.5 6.06087 0.5 6.38636C0.5 6.71186 0.642232 7.02402 0.895406 7.25418C1.14858 7.48433 1.49196 7.61364 1.85 7.61364H3.2V23.5682C3.2 24.5447 3.6267 25.4811 4.38622 26.1716C5.14574 26.8621 6.17587 27.25 7.25 27.25H20.75C21.8241 27.25 22.8543 26.8621 23.6138 26.1716C24.3733 25.4811 24.8 24.5447 24.8 23.5682V7.61364H26.15C26.508 7.61364 26.8514 7.48433 27.1046 7.25418C27.3578 7.02402 27.5 6.71186 27.5 6.38636C27.5 6.06087 27.3578 5.74871 27.1046 5.51855C26.8514 5.28839 26.508 5.15909 26.15 5.15909ZM9.95 3.93182C9.95 3.60633 10.0922 3.29416 10.3454 3.06401C10.5986 2.83385 10.942 2.70455 11.3 2.70455H16.7C17.058 2.70455 17.4014 2.83385 17.6546 3.06401C17.9078 3.29416 18.05 3.60633 18.05 3.93182V5.15909H9.95V3.93182ZM22.1 23.5682C22.1 23.8937 21.9578 24.2058 21.7046 24.436C21.4514 24.6662 21.108 24.7955 20.75 24.7955H7.25C6.89196 24.7955 6.54858 24.6662 6.29541 24.436C6.04223 24.2058 5.9 23.8937 5.9 23.5682V7.61364H22.1V23.5682ZM11.3 13.75V21.1136C11.3 21.4391 11.1578 21.7513 10.9046 21.9815C10.6514 22.2116 10.308 22.3409 9.95 22.3409C9.59196 22.3409 9.24858 22.2116 8.99541 21.9815C8.74223 21.7513 8.6 21.4391 8.6 21.1136V13.75C8.6 13.4245 8.74223 13.1123 8.99541 12.8822C9.24858 12.652 9.59196 12.5227 9.95 12.5227C10.308 12.5227 10.6514 12.652 10.9046 12.8822C11.1578 13.1123 11.3 13.4245 11.3 13.75ZM19.4 13.75V21.1136C19.4 21.4391 19.2578 21.7513 19.0046 21.9815C18.7514 22.2116 18.408 22.3409 18.05 22.3409C17.692 22.3409 17.3486 22.2116 17.0954 21.9815C16.8422 21.7513 16.7 21.4391 16.7 21.1136V13.75C16.7 13.4245 16.8422 13.1123 17.0954 12.8822C17.3486 12.652 17.692 12.5227 18.05 12.5227C18.408 12.5227 18.7514 12.652 19.0046 12.8822C19.2578 13.1123 19.4 13.4245 19.4 13.75Z" fill="#F85B5B"/>
</svg>
