<svg width="134" height="47" viewBox="0 0 134 47" fill="none" xmlns="http://www.w3.org/2000/svg">
<path d="M15.6 4.24C19.88 4.24 23.56 5.1 26.64 6.82C29.72 8.5 32.06 10.92 33.66 14.08C35.26 17.2 36.06 20.88 36.06 25.12C36.06 29.36 35.26 33.06 33.66 36.22C32.06 39.34 29.72 41.76 26.64 43.48C23.56 45.16 19.88 46 15.6 46H0.18V4.24H15.6ZM15.6 38.98C19.4 38.98 22.36 37.8 24.48 35.44C26.64 33.08 27.72 29.64 27.72 25.12C27.72 20.6 26.64 17.16 24.48 14.8C22.36 12.44 19.4 11.26 15.6 11.26H8.1V38.98H15.6ZM60.0164 46.72C56.8564 46.72 54.0764 46.06 51.6764 44.74C49.2764 43.38 47.4164 41.46 46.0964 38.98C44.8164 36.5 44.1764 33.62 44.1764 30.34C44.1764 27.06 44.8164 24.18 46.0964 21.7C47.4164 19.22 49.2764 17.32 51.6764 16C54.0764 14.64 56.8564 13.96 60.0164 13.96C63.1764 13.96 65.9564 14.64 68.3564 16C70.7564 17.32 72.5964 19.22 73.8764 21.7C75.1964 24.18 75.8564 27.06 75.8564 30.34C75.8564 33.62 75.1964 36.5 73.8764 38.98C72.5964 41.46 70.7564 43.38 68.3564 44.74C65.9564 46.06 63.1764 46.72 60.0164 46.72ZM60.0164 40.18C62.3764 40.18 64.2164 39.34 65.5364 37.66C66.8564 35.94 67.5164 33.5 67.5164 30.34C67.5164 27.14 66.8564 24.7 65.5364 23.02C64.2164 21.34 62.3764 20.5 60.0164 20.5C57.6564 20.5 55.8164 21.34 54.4964 23.02C53.1764 24.7 52.5164 27.14 52.5164 30.34C52.5164 33.5 53.1764 35.94 54.4964 37.66C55.8164 39.34 57.6564 40.18 60.0164 40.18ZM127.835 46.72C126.315 46.72 125.035 46.22 123.995 45.22C122.955 44.22 122.435 42.9 122.435 41.26C122.435 39.62 122.955 38.3 123.995 37.3C125.035 36.3 126.315 35.8 127.835 35.8C129.355 35.8 130.635 36.3 131.675 37.3C132.715 38.3 133.235 39.62 133.235 41.26C133.235 42.9 132.715 44.22 131.675 45.22C130.635 46.22 129.355 46.72 127.835 46.72Z" fill="#212121"/>
<path d="M87.5953 10C86.2353 10 85.0753 9.54 84.1153 8.62C83.1553 7.7 82.6753 6.5 82.6753 5.02C82.6753 3.54 83.1553 2.34 84.1153 1.42C85.0753 0.499998 86.2353 0.0399981 87.5953 0.0399981C88.9553 0.0399981 90.1153 0.499998 91.0753 1.42C92.0353 2.34 92.5153 3.54 92.5153 5.02C92.5153 6.5 92.0353 7.7 91.0753 8.62C90.1153 9.54 88.9553 10 87.5953 10ZM91.5553 14.68V46H83.6353V14.74L91.5553 14.68ZM110.112 14.68H117.312V20.56H110.112V35.68C110.112 38.72 111.272 40.24 113.592 40.24C114.672 40.24 115.932 39.86 117.372 39.1V45.64C116.372 46 115.432 46.26 114.552 46.42C113.712 46.62 112.752 46.72 111.672 46.72C105.352 46.72 102.192 43.04 102.192 35.68V20.56H97.6317V14.68H102.192V6.28L110.112 3.52V14.68Z" fill="#F68721"/>
</svg>
