<svg width="30" height="30" viewBox="0 0 30 30" fill="none" xmlns="http://www.w3.org/2000/svg">
<path d="M23.7544 2.50395C22.7633 2.50099 21.8116 2.89191 21.1087 3.59062L19.6678 4.99851H5.97171C5.05267 5.0047 4.17303 5.37244 3.52316 6.02232C2.87329 6.67219 2.50546 7.55185 2.49927 8.47088V24.0284C2.50546 24.9474 2.87329 25.8271 3.52316 26.4769C4.17303 27.1268 5.05267 27.4947 5.97171 27.5009H21.5292C22.4482 27.4947 23.3279 27.1268 23.9777 26.4769C24.6276 25.8271 24.9954 24.9474 25.0016 24.0284V10.3324L26.4095 8.89606C26.9366 8.37271 27.296 7.70434 27.4419 6.97605C27.5878 6.24776 27.5137 5.49249 27.229 4.80647C26.9442 4.12044 26.4617 3.5348 25.843 3.12391C25.2242 2.71302 24.4971 2.49548 23.7544 2.49919V2.50395ZM23.7591 4.97486C24.0756 4.97486 24.3922 5.10236 24.6473 5.35275C24.7666 5.46738 24.8616 5.60495 24.9264 5.75717C24.9913 5.90939 25.0247 6.07312 25.0247 6.23858C25.0247 6.40404 24.9913 6.56777 24.9264 6.71999C24.8616 6.87221 24.7666 7.00978 24.6473 7.12441L24.6379 7.13392L14.4804 17.4993H12.5008V15.5245L22.8662 5.36703L22.8756 5.35751C22.9908 5.23944 23.1281 5.14526 23.2797 5.0804C23.4313 5.01554 23.5942 4.98133 23.7591 4.97962V4.97486ZM5.97171 7.49768H17.1213L10.3701 14.1118C10.1351 14.3459 10.0026 14.6637 10.0016 14.9953V18.7512C10.0016 19.4409 10.5591 19.9937 11.2489 19.9985H15.0048C15.3355 19.9985 15.6567 19.8662 15.8882 19.6299L22.5024 12.8836V24.0284C22.5063 24.1572 22.4839 24.2855 22.4363 24.4054C22.3888 24.5252 22.3173 24.6341 22.2261 24.7253C22.1349 24.8165 22.0261 24.888 21.9062 24.9355C21.7864 24.983 21.6581 25.0055 21.5292 25.0016H5.97171C5.84284 25.0055 5.71453 24.983 5.59467 24.9355C5.47482 24.888 5.36596 24.8165 5.27479 24.7253C5.18362 24.6341 5.11208 24.5252 5.06456 24.4054C5.01704 24.2855 4.99455 24.1572 4.99848 24.0284V8.47088C4.99521 8.3424 5.01818 8.2146 5.06599 8.0953C5.11381 7.976 5.18545 7.86776 5.27655 7.7771C5.36765 7.68644 5.47629 7.61527 5.59581 7.56804C5.71534 7.52081 5.84325 7.49854 5.97171 7.50244V7.49768Z" fill="#ADADAD"/>
</svg>
