<svg width="40" height="40" viewBox="0 0 40 40" fill="none" xmlns="http://www.w3.org/2000/svg">
<path fill-rule="evenodd" clip-rule="evenodd" d="M20 40C8.95431 40 0 31.0457 0 20C0 8.95431 8.95431 0 20 0C31.0457 0 40 8.95431 40 20C40 31.0457 31.0457 40 20 40ZM20 2.22222C10.1817 2.22222 2.22222 10.1817 2.22222 20C2.22222 29.8183 10.1817 37.7778 20 37.7778C29.8183 37.7778 37.7778 29.8183 37.7778 20C37.7778 10.1817 29.8183 2.22222 20 2.22222Z" fill="#ADADAD"/>
<path d="M11.2 22.1333C9.97263 22.1333 8.97778 21.1385 8.97778 19.9111C8.97778 18.6837 9.97263 17.6889 11.2 17.6889C12.4274 17.6889 13.4222 18.6837 13.4222 19.9111C13.4222 21.1385 12.4274 22.1333 11.2 22.1333ZM20.0889 22.1333C18.8615 22.1333 17.8667 21.1385 17.8667 19.9111C17.8667 18.6837 18.8615 17.6889 20.0889 17.6889C21.3163 17.6889 22.3111 18.6837 22.3111 19.9111C22.3111 21.1385 21.3163 22.1333 20.0889 22.1333ZM28.9778 22.1333C27.7504 22.1333 26.7556 21.1385 26.7556 19.9111C26.7556 18.6837 27.7504 17.6889 28.9778 17.6889C30.2052 17.6889 31.2 18.6837 31.2 19.9111C31.2 21.1385 30.2052 22.1333 28.9778 22.1333Z" fill="#ADADAD"/>
</svg>
