<svg width="28" height="32" viewBox="0 0 28 32" fill="none" xmlns="http://www.w3.org/2000/svg">
<path d="M25.0303 7.23471H22.9836V5.50801C22.9963 4.81747 22.7005 4.15062 22.1609 3.65366C21.6214 3.1567 20.8822 2.87019 20.1054 2.85694H18.5564C18.4225 2.18103 18.0249 1.5687 17.4335 1.1275C16.842 0.686299 16.0946 0.444458 15.3225 0.444458C14.5504 0.444458 13.803 0.686299 13.2116 1.1275C12.6202 1.5687 12.2226 2.18103 12.0887 2.85694H2.87864C2.10182 2.87019 1.36261 3.1567 0.823067 3.65366C0.283525 4.15062 -0.0123195 4.81747 0.000393408 5.50801V24.5267C-0.0123195 25.2173 0.283525 25.8841 0.823067 26.3811C1.36261 26.878 2.10182 27.1646 2.87864 27.1778H4.92537V28.9045C4.91266 29.595 5.2085 30.2619 5.74804 30.7588C6.28758 31.2558 7.0268 31.5423 7.80362 31.5556H25.0303C25.8072 31.5423 26.5464 31.2558 27.0859 30.7588C27.6255 30.2619 27.9213 29.595 27.9086 28.9045V9.88576C27.9213 9.19522 27.6254 8.52838 27.0859 8.03142C26.5464 7.53447 25.8072 7.24796 25.0303 7.23471ZM15.3225 2.37053C15.6101 2.37424 15.8844 2.47837 16.0862 2.66042C16.2881 2.84246 16.4012 3.08779 16.4012 3.34339C16.4012 3.59899 16.288 3.84432 16.0862 4.02635C15.8843 4.20839 15.61 4.3125 15.3225 4.3162C15.035 4.31249 14.7606 4.20836 14.5588 4.02632C14.357 3.84428 14.2438 3.59894 14.2438 3.34335C14.2438 3.08775 14.357 2.84242 14.5588 2.66039C14.7607 2.47835 15.035 2.37423 15.3225 2.37053ZM2.87864 25.2321C2.68243 25.2189 2.50002 25.1373 2.37097 25.0053C2.24192 24.8732 2.17664 24.7013 2.18927 24.5267V5.50801C2.17664 5.33345 2.24192 5.1615 2.37097 5.02945C2.50002 4.8974 2.68243 4.8159 2.87864 4.80261H12.1333L10.171 6.54687C9.97069 6.73019 9.85959 6.97621 9.8617 7.23175C9.86381 7.4873 9.97895 7.73184 10.1822 7.91254C10.3855 8.09323 10.6606 8.19557 10.9481 8.19743C11.2356 8.1993 11.5124 8.10053 11.7186 7.92249L13.9105 5.97417C14.6557 6.28581 15.5051 6.3384 16.2918 6.1216C17.0784 5.9048 17.7454 5.4343 18.1616 4.80257L20.1053 4.80261C20.3016 4.81589 20.484 4.8974 20.613 5.02945C20.7421 5.1615 20.8074 5.33345 20.7947 5.50801V24.5267C20.8074 24.7013 20.7421 24.8732 20.613 25.0053C20.484 25.1373 20.3016 25.2189 20.1054 25.2321H2.87864ZM25.7197 28.9045C25.7323 29.0791 25.6671 29.251 25.538 29.3831C25.409 29.5151 25.2265 29.5966 25.0303 29.6099H7.80362C7.6074 29.5966 7.425 29.5151 7.29595 29.3831C7.1669 29.251 7.10161 29.0791 7.11425 28.9045V27.1778H20.1054C20.8822 27.1646 21.6214 26.878 22.1609 26.3811C22.7005 25.8841 22.9963 25.2173 22.9836 24.5267V9.18038H25.0303C25.2265 9.19366 25.4089 9.27517 25.538 9.40722C25.667 9.53927 25.7323 9.71121 25.7197 9.88576V28.9045Z" fill="#49B9D2"/>
<path d="M17.5114 11.6125H5.47259C5.18507 11.6162 4.91074 11.7203 4.7089 11.9023C4.50706 12.0844 4.39391 12.3297 4.39392 12.5853C4.39393 12.8409 4.50708 13.0862 4.70894 13.2683C4.91079 13.4503 5.18512 13.5544 5.47264 13.5581H17.5114C17.7989 13.5544 18.0733 13.4503 18.2751 13.2683C18.477 13.0862 18.5901 12.8409 18.5901 12.5853C18.5901 12.3297 18.477 12.0844 18.2751 11.9023C18.0733 11.7203 17.7989 11.6162 17.5114 11.6125ZM17.5114 16.4766H5.47259C5.18507 16.4803 4.91074 16.5845 4.7089 16.7665C4.50706 16.9486 4.39391 17.1939 4.39392 17.4495C4.39393 17.7051 4.50708 17.9504 4.70894 18.1325C4.91079 18.3145 5.18512 18.4186 5.47264 18.4223H17.5114C17.7989 18.4186 18.0733 18.3145 18.2751 18.1324C18.477 17.9504 18.5901 17.7051 18.5901 17.4495C18.5901 17.1939 18.477 16.9485 18.2751 16.7665C18.0733 16.5845 17.7989 16.4803 17.5114 16.4766ZM17.5114 20.8544C17.2238 20.8579 16.9492 20.962 16.7472 21.144C16.5452 21.3261 16.432 21.5715 16.432 21.8272C16.432 22.083 16.5452 22.3284 16.7473 22.5104C16.9493 22.6925 17.2238 22.7965 17.5115 22.8001C17.7991 22.7965 18.0736 22.6925 18.2756 22.5104C18.4776 22.3284 18.5909 22.0829 18.5909 21.8272C18.5909 21.5715 18.4776 21.3261 18.2756 21.144C18.0736 20.9619 17.7991 20.8579 17.5114 20.8544ZM13.1337 20.8544C12.8461 20.8581 12.5718 20.9622 12.37 21.1443C12.1681 21.3263 12.055 21.5716 12.055 21.8272C12.055 22.0828 12.1682 22.3282 12.37 22.5102C12.5719 22.6922 12.8462 22.7964 13.1337 22.8001C13.4212 22.7963 13.6956 22.6922 13.8974 22.5102C14.0992 22.3281 14.2124 22.0828 14.2124 21.8272C14.2124 21.5716 14.0992 21.3263 13.8974 21.1442C13.6955 20.9622 13.4212 20.8581 13.1337 20.8544Z" fill="#49B9D2"/>
</svg>
