<svg width="28" height="26" viewBox="0 0 28 26" fill="none" xmlns="http://www.w3.org/2000/svg">
<g filter="url(#filter0_i_40_58)">
<path d="M13.0489 1.92705C13.3483 1.00574 14.6517 1.00574 14.9511 1.92705L17.1432 8.67376C17.2771 9.08578 17.661 9.36475 18.0943 9.36475H25.1882C26.1569 9.36475 26.5597 10.6044 25.7759 11.1738L20.0369 15.3435C19.6864 15.5981 19.5397 16.0495 19.6736 16.4615L21.8657 23.2082C22.1651 24.1295 21.1106 24.8956 20.3269 24.3262L14.5878 20.1565C14.2373 19.9019 13.7627 19.9019 13.4122 20.1565L7.67312 24.3262C6.88941 24.8956 5.83493 24.1295 6.13428 23.2082L8.32642 16.4615C8.46029 16.0495 8.31363 15.5981 7.96315 15.3435L2.22405 11.1738C1.44034 10.6044 1.84311 9.36475 2.81184 9.36475H9.90575C10.339 9.36475 10.7229 9.08578 10.8568 8.67376L13.0489 1.92705Z" fill="#FCFCFC"/>
</g>
<path d="M15.4266 1.77254C14.9776 0.390575 13.0224 0.390579 12.5734 1.77254L10.3813 8.51925C10.3143 8.72526 10.1224 8.86475 9.90575 8.86475H2.81184C1.35875 8.86475 0.754588 10.7242 1.93016 11.5783L7.66925 15.748C7.8445 15.8753 7.91783 16.101 7.85089 16.307L5.65875 23.0537C5.20972 24.4357 6.79144 25.5848 7.96701 24.7307L13.7061 20.5611C13.8814 20.4337 14.1186 20.4337 14.2939 20.5611L20.033 24.7307C21.2086 25.5848 22.7903 24.4357 22.3413 23.0537L20.1491 16.307C20.0822 16.101 20.1555 15.8753 20.3307 15.748L26.0698 11.5783C27.2454 10.7242 26.6412 8.86475 25.1882 8.86475H18.0943C17.8776 8.86475 17.6857 8.72526 17.6187 8.51925L15.4266 1.77254Z" stroke="#ADADAD"/>
<defs>
<filter id="filter0_i_40_58" x="-0.192017" y="0.236084" width="27.384" height="26.2902" filterUnits="userSpaceOnUse" color-interpolation-filters="sRGB">
<feFlood flood-opacity="0" result="BackgroundImageFix"/>
<feBlend mode="normal" in="SourceGraphic" in2="BackgroundImageFix" result="shape"/>
<feColorMatrix in="SourceAlpha" type="matrix" values="0 0 0 0 0 0 0 0 0 0 0 0 0 0 0 0 0 0 127 0" result="hardAlpha"/>
<feOffset dx="-1" dy="1"/>
<feGaussianBlur stdDeviation="1"/>
<feComposite in2="hardAlpha" operator="arithmetic" k2="-1" k3="1"/>
<feColorMatrix type="matrix" values="0 0 0 0 0 0 0 0 0 0 0 0 0 0 0 0 0 0 0.25 0"/>
<feBlend mode="normal" in2="shape" result="effect1_innerShadow_40_58"/>
</filter>
</defs>
</svg>
