<svg width="28" height="26" viewBox="0 0 28 26" fill="none" xmlns="http://www.w3.org/2000/svg">
<path d="M15.4266 1.77254C14.9776 0.390575 13.0224 0.390579 12.5734 1.77254L10.3813 8.51925C10.3143 8.72526 10.1224 8.86475 9.90575 8.86475H2.81184C1.35875 8.86475 0.754588 10.7242 1.93016 11.5783L7.66925 15.748C7.8445 15.8753 7.91783 16.101 7.85089 16.307L5.65875 23.0537C5.20972 24.4357 6.79144 25.5848 7.96701 24.7307L13.7061 20.5611C13.8814 20.4337 14.1186 20.4337 14.2939 20.5611L20.033 24.7307C21.2086 25.5848 22.7903 24.4357 22.3413 23.0537L20.1491 16.307C20.0822 16.101 20.1555 15.8753 20.3307 15.748L26.0698 11.5783C27.2454 10.7242 26.6412 8.86475 25.1882 8.86475H18.0943C17.8776 8.86475 17.6857 8.72526 17.6187 8.51925L15.4266 1.77254Z" fill="#FFDE2F" stroke="#FFDE2F"/>
</svg>
